<svg width="40" height="40" viewBox="0 0 40 40" fill="none" xmlns="http://www.w3.org/2000/svg">
<path d="M7.77792 35C7.02792 35 6.37736 34.7246 5.82625 34.1738C5.27542 33.6226 5 32.9721 5 32.2221V7.77792C5 7.02792 5.27542 6.37736 5.82625 5.82625C6.37736 5.27542 7.02792 5 7.77792 5H32.2221C32.9721 5 33.6226 5.27542 34.1738 5.82625C34.7246 6.37736 35 7.02792 35 7.77792V32.2221C35 32.9721 34.7246 33.6226 34.1738 34.1738C33.6226 34.7246 32.9721 35 32.2221 35H7.77792ZM7.77792 32.2221H18.6113V7.77792H7.77792V32.2221ZM21.3888 32.2221H32.2221V19.9721H21.3888V32.2221ZM21.3888 17.1946H32.2221V7.77792H21.3888V17.1946Z" fill="white"/>
</svg>
