<svg width="40" height="40" viewBox="0 0 40 40" fill="none" xmlns="http://www.w3.org/2000/svg">
<path d="M10 36C8.72222 36 7.73611 35.6597 7.04167 34.9792C6.34722 34.2986 6 33.3056 6 32V26H10V4L12.4 6.41667L14.8 4L17.2 6.41667L19.6 4L22 6.41667L24.4 4L26.8 6.41667L29.2 4L31.6 6.41667L34 4V31.5C34 32.8056 33.5694 33.8819 32.7083 34.7292C31.8472 35.5764 30.7778 36 29.5 36H10ZM29.5 33C29.9444 33 30.3056 32.8681 30.5833 32.6042C30.8611 32.3403 31 31.9722 31 31.5V9H13V26H28V31.5C28 31.9722 28.1389 32.3403 28.4167 32.6042C28.6944 32.8681 29.0556 33 29.5 33ZM15 15V12H24V15H15ZM15 20V17H24V20H15ZM27.5 15C27.1111 15 26.7639 14.8571 26.4583 14.5713C26.1528 14.2854 26 13.9313 26 13.5088C26 13.0863 26.1528 12.7292 26.4583 12.4375C26.7639 12.1458 27.1181 12 27.5208 12C27.9236 12 28.2708 12.1429 28.5625 12.4287C28.8542 12.7146 29 13.0687 29 13.4912C29 13.9137 28.8563 14.2708 28.5688 14.5625C28.2813 14.8542 27.925 15 27.5 15ZM27.5 20C27.1111 20 26.7639 19.8571 26.4583 19.5713C26.1528 19.2854 26 18.9313 26 18.5088C26 18.0863 26.1528 17.7292 26.4583 17.4375C26.7639 17.1458 27.1181 17 27.5208 17C27.9236 17 28.2708 17.1429 28.5625 17.4287C28.8542 17.7146 29 18.0687 29 18.4912C29 18.9137 28.8563 19.2708 28.5688 19.5625C28.2813 19.8542 27.925 20 27.5 20ZM10 33H25V29H9V32C9 32.4722 9.04861 32.7569 9.14583 32.8542C9.24306 32.9514 9.52778 33 10 33Z" fill="white"/>
</svg>
