<svg width="40" height="40" viewBox="0 0 40 40" fill="none" xmlns="http://www.w3.org/2000/svg">
<path d="M0 30V27.6529C0 26.5404 0.587917 25.635 1.76375 24.9367C2.93986 24.2381 4.485 23.8887 6.39917 23.8887C6.745 23.8887 7.07736 23.8957 7.39625 23.9096C7.71542 23.9235 8.02778 23.955 8.33333 24.0042C8.05556 24.52 7.84722 25.0493 7.70833 25.5921C7.56944 26.1351 7.5 26.7017 7.5 27.2917V30H0ZM10 30V27.2917C10 26.4028 10.2431 25.5903 10.7292 24.8542C11.2153 24.1181 11.9028 23.4722 12.7917 22.9167C13.6806 22.3611 14.7431 21.9444 15.9792 21.6667C17.2153 21.3889 18.5556 21.25 20 21.25C21.4722 21.25 22.8264 21.3889 24.0625 21.6667C25.2986 21.9444 26.3611 22.3611 27.25 22.9167C28.1389 23.4722 28.8194 24.1181 29.2917 24.8542C29.7639 25.5903 30 26.4028 30 27.2917V30H10ZM32.5 30V27.2917C32.5 26.6831 32.4375 26.1096 32.3125 25.5713C32.1875 25.0329 31.9907 24.5113 31.7221 24.0063C32.0276 23.9557 32.3371 23.9235 32.6504 23.9096C32.964 23.8957 33.2843 23.8887 33.6113 23.8887C35.5279 23.8887 37.0718 24.2315 38.2429 24.9171C39.4143 25.6026 40 26.5146 40 27.6529V30H32.5ZM12.8471 27.2221H27.1667V27.0554C27.0742 26.1851 26.3496 25.4629 24.9929 24.8887C23.6365 24.3149 21.9722 24.0279 20 24.0279C18.0278 24.0279 16.3635 24.3149 15.0071 24.8887C13.6504 25.4629 12.9304 26.1944 12.8471 27.0833V27.2221ZM6.37667 22.5C5.54222 22.5 4.82639 22.2008 4.22917 21.6025C3.63194 21.0042 3.33333 20.2849 3.33333 19.4446C3.33333 18.5926 3.6325 17.8704 4.23083 17.2779C4.82917 16.6851 5.54847 16.3888 6.38875 16.3888C7.24069 16.3888 7.96292 16.6851 8.55542 17.2779C9.14819 17.8704 9.44458 18.5967 9.44458 19.4567C9.44458 20.2911 9.14819 21.0069 8.55542 21.6042C7.96292 22.2014 7.23667 22.5 6.37667 22.5ZM33.5992 22.5C32.7644 22.5 32.0485 22.2008 31.4513 21.6025C30.854 21.0042 30.5554 20.2849 30.5554 19.4446C30.5554 18.5926 30.8547 17.8704 31.4533 17.2779C32.0517 16.6851 32.771 16.3888 33.6113 16.3888C34.4629 16.3888 35.1851 16.6851 35.7779 17.2779C36.3704 17.8704 36.6667 18.5967 36.6667 19.4567C36.6667 20.2911 36.3704 21.0069 35.7779 21.6042C35.1851 22.2014 34.4589 22.5 33.5992 22.5ZM20 20C18.6111 20 17.4306 19.5139 16.4583 18.5417C15.4861 17.5694 15 16.3889 15 15C15 13.5833 15.4861 12.3958 16.4583 11.4375C17.4306 10.4792 18.6111 10 20 10C21.4167 10 22.6042 10.4792 23.5625 11.4375C24.5208 12.3958 25 13.5833 25 15C25 16.3889 24.5208 17.5694 23.5625 18.5417C22.6042 19.5139 21.4167 20 20 20ZM20.0096 17.2221C20.6421 17.2221 21.169 17.0082 21.5904 16.5804C22.0115 16.1526 22.2221 15.6226 22.2221 14.9904C22.2221 14.3579 22.0101 13.831 21.5863 13.4096C21.1621 12.9885 20.6365 12.7779 20.0096 12.7779C19.3829 12.7779 18.8543 12.9899 18.4238 13.4137C17.9932 13.8379 17.7779 14.3635 17.7779 14.9904C17.7779 15.6171 17.9918 16.1457 18.4196 16.5763C18.8474 17.0068 19.3774 17.2221 20.0096 17.2221Z" fill="white"/>
</svg>
