<svg width="40" height="40" viewBox="0 0 40 40" fill="none" xmlns="http://www.w3.org/2000/svg">
<g clip-path="url(#clip0_3_69)">
<path d="M17.5833 27.6112L29.3613 15.8333L27.3054 13.8053L17.5833 23.5278L12.6667 18.6112L10.6388 20.6387L17.5833 27.6112ZM20 36.6666C17.7131 36.6666 15.5557 36.2291 13.5279 35.3541C11.5001 34.4791 9.73153 33.287 8.22209 31.7778C6.71292 30.2684 5.52084 28.4998 4.64584 26.472C3.77084 24.4442 3.33334 22.2869 3.33334 19.9999C3.33334 17.6944 3.77084 15.5277 4.64584 13.4999C5.52084 11.4721 6.71292 9.70825 8.22209 8.20825C9.73153 6.70825 11.5001 5.52075 13.5279 4.64575C15.5557 3.77075 17.7131 3.33325 20 3.33325C22.3056 3.33325 24.4722 3.77075 26.5 4.64575C28.5278 5.52075 30.2917 6.70825 31.7917 8.20825C33.2917 9.70825 34.4792 11.4721 35.3542 13.4999C36.2292 15.5277 36.6667 17.6944 36.6667 19.9999C36.6667 22.2869 36.2292 24.4442 35.3542 26.472C34.4792 28.4998 33.2917 30.2684 31.7917 31.7778C30.2917 33.287 28.5278 34.4791 26.5 35.3541C24.4722 36.2291 22.3056 36.6666 20 36.6666ZM20 33.8887C23.8703 33.8887 27.1526 32.5369 29.8471 29.8333C32.5415 27.1296 33.8888 23.8519 33.8888 19.9999C33.8888 16.1296 32.5415 12.8473 29.8471 10.1528C27.1526 7.45839 23.8703 6.11117 20 6.11117C16.1481 6.11117 12.8703 7.45839 10.1667 10.1528C7.46306 12.8473 6.11125 16.1296 6.11125 19.9999C6.11125 23.8519 7.46306 27.1296 10.1667 29.8333C12.8703 32.5369 16.1481 33.8887 20 33.8887Z" fill="white"/>
</g>
<defs>
<clipPath id="clip0_3_69">
<rect width="40" height="40" fill="white"/>
</clipPath>
</defs>
</svg>
