<svg width="40" height="40" viewBox="0 0 40 40" fill="none" xmlns="http://www.w3.org/2000/svg">
<path d="M11.2808 22.222C11.8992 22.222 12.4236 22.0056 12.8542 21.5728C13.2847 21.1403 13.5 20.6149 13.5 19.9966C13.5 19.3785 13.2836 18.8542 12.8508 18.4237C12.4181 17.9931 11.8926 17.7778 11.2746 17.7778C10.6563 17.7778 10.1318 17.9942 9.70126 18.427C9.27071 18.8595 9.05543 19.3849 9.05543 20.0033C9.05543 20.6213 9.27182 21.1456 9.70459 21.5762C10.1374 22.0067 10.6628 22.222 11.2808 22.222ZM20.0033 22.222C20.6214 22.222 21.1457 22.0056 21.5763 21.5728C22.0068 21.1403 22.2221 20.6149 22.2221 19.9966C22.2221 19.3785 22.0057 18.8542 21.5729 18.4237C21.1404 17.9931 20.615 17.7778 19.9967 17.7778C19.3786 17.7778 18.8543 17.9942 18.4238 18.427C17.9932 18.8595 17.7779 19.3849 17.7779 20.0033C17.7779 20.6213 17.9943 21.1456 18.4271 21.5762C18.8596 22.0067 19.385 22.222 20.0033 22.222ZM28.6979 22.222C29.316 22.222 29.8403 22.0056 30.2708 21.5728C30.7014 21.1403 30.9167 20.6149 30.9167 19.9966C30.9167 19.3785 30.7003 18.8542 30.2675 18.4237C29.8347 17.9931 29.3093 17.7778 28.6913 17.7778C28.0729 17.7778 27.5485 17.9942 27.1179 18.427C26.6874 18.8595 26.4721 19.3849 26.4721 20.0033C26.4721 20.6213 26.6885 21.1456 27.1213 21.5762C27.554 22.0067 28.0796 22.222 28.6979 22.222ZM20.0075 36.6666C17.7067 36.6666 15.5446 36.2291 13.5213 35.3541C11.4979 34.4791 9.73154 33.287 8.22209 31.7778C6.71293 30.2684 5.52084 28.5013 4.64584 26.4766C3.77084 24.4519 3.33334 22.2884 3.33334 19.9862C3.33334 17.6839 3.77084 15.5203 4.64584 13.4953C5.52084 11.4706 6.71293 9.70825 8.22209 8.20825C9.73154 6.70825 11.4986 5.52075 13.5233 4.64575C15.5481 3.77075 17.7115 3.33325 20.0138 3.33325C22.316 3.33325 24.4796 3.77075 26.5046 4.64575C28.5293 5.52075 30.2917 6.70825 31.7917 8.20825C33.2917 9.70825 34.4792 11.4721 35.3542 13.4999C36.2292 15.5277 36.6667 17.6919 36.6667 19.9924C36.6667 22.2933 36.2292 24.4553 35.3542 26.4787C34.4792 28.502 33.2917 30.2666 31.7917 31.7724C30.2917 33.2783 28.5278 34.4705 26.5 35.3491C24.4722 36.2274 22.3081 36.6666 20.0075 36.6666ZM20.0138 33.8887C23.8749 33.8887 27.1527 32.5369 29.8471 29.8333C32.5415 27.1296 33.8888 23.8473 33.8888 19.9862C33.8888 16.1251 32.5433 12.8473 29.8525 10.1528C27.1614 7.45839 23.8772 6.11117 20 6.11117C16.1481 6.11117 12.8703 7.45658 10.1667 10.1474C7.46307 12.8385 6.11126 16.1227 6.11126 19.9999C6.11126 23.8519 7.46307 27.1296 10.1667 29.8333C12.8703 32.5369 16.1527 33.8887 20.0138 33.8887Z" fill="white"/>
</svg>
