<svg width="40" height="40" viewBox="0 0 40 40" fill="none" xmlns="http://www.w3.org/2000/svg">
<path d="M20 38.3332C16.8889 38.3332 13.9352 37.4859 11.1388 35.7915C8.34266 34.0971 6.11127 32.0693 4.4446 29.7082V34.9998H1.66669V24.9998H11.6667V27.7778H6.48627C7.87516 29.8703 9.80794 31.6897 12.2846 33.2361C14.7615 34.7822 17.3334 35.5553 20 35.5553C22.1389 35.5553 24.1552 35.1455 26.0488 34.3261C27.9421 33.5066 29.5902 32.3955 30.9929 30.9928C32.3957 29.59 33.5068 27.9419 34.3263 26.0486C35.1457 24.155 35.5554 22.1387 35.5554 19.9998H38.3334C38.3334 22.5276 37.8542 24.9026 36.8959 27.1248C35.9375 29.3471 34.625 31.2915 32.9584 32.9582C31.2917 34.6248 29.3472 35.9373 27.125 36.8957C24.9028 37.854 22.5278 38.3332 20 38.3332ZM18.6946 31.8611V29.6386C17.426 29.3147 16.3727 28.7708 15.5346 28.0069C14.6968 27.243 14.0186 26.2129 13.5 24.9165L15.8334 24.0832C16.1667 25.1665 16.7338 26.0068 17.5346 26.604C18.3357 27.2012 19.2502 27.4998 20.2779 27.4998C21.324 27.4998 22.2013 27.2475 22.9096 26.7428C23.6179 26.2383 23.9721 25.5369 23.9721 24.6386C23.9721 23.7591 23.6272 23.0278 22.9375 22.4444C22.2478 21.8611 20.9909 21.2036 19.1667 20.4719C17.5092 19.8147 16.2754 19.0833 15.4654 18.2778C14.6552 17.4722 14.25 16.398 14.25 15.0553C14.25 13.8608 14.6597 12.8215 15.4792 11.9373C16.2986 11.0532 17.3982 10.5 18.7779 10.2778V8.1665H21.2779V10.2778C22.3149 10.3794 23.2292 10.7358 24.0209 11.3469C24.8125 11.958 25.4167 12.7497 25.8334 13.7219L23.6113 14.7219C23.2593 13.9905 22.7963 13.4234 22.2221 13.0207C21.6482 12.6179 20.9353 12.4165 20.0834 12.4165C19.037 12.4165 18.2199 12.6526 17.6321 13.1248C17.044 13.5971 16.75 14.2405 16.75 15.0553C16.75 15.8886 17.0972 16.5507 17.7917 17.0415C18.4861 17.5323 19.6482 18.0925 21.2779 18.7219C23.2224 19.4997 24.5742 20.3469 25.3334 21.2636C26.0925 22.1803 26.4721 23.3053 26.4721 24.6386C26.4721 25.3703 26.3425 26.0323 26.0834 26.6248C25.8242 27.2173 25.4654 27.7243 25.0071 28.1457C24.5488 28.5671 23.9954 28.9097 23.3471 29.1736C22.699 29.4375 21.9815 29.6203 21.1946 29.7219V31.8611H18.6946ZM1.66669 19.9998C1.66669 17.4721 2.14585 15.0971 3.10419 12.8748C4.06252 10.6526 5.37502 8.70817 7.04169 7.0415C8.70835 5.37484 10.6528 4.06234 12.875 3.104C15.0972 2.14567 17.4722 1.6665 20 1.6665C23.1111 1.6665 26.0649 2.51373 28.8613 4.20817C31.6574 5.90262 33.8888 7.93039 35.5554 10.2915V4.99984H38.3334V14.9998H28.3334V12.2219H33.5138C32.1249 10.1294 30.1967 8.30998 27.7292 6.76359C25.2617 5.21748 22.6853 4.44442 20 4.44442C17.8611 4.44442 15.8449 4.85414 13.9513 5.67359C12.0579 6.49303 10.4099 7.60414 9.0071 9.00692C7.60433 10.4097 6.49321 12.0578 5.67377 13.9511C4.85433 15.8447 4.4446 17.8609 4.4446 19.9998H1.66669Z" fill="white"/>
</svg>
