<svg width="40" height="40" viewBox="0 0 40 40" fill="none" xmlns="http://www.w3.org/2000/svg">
<path d="M13.8333 28.1112L20 21.9445L26.1667 28.1112L28.1112 26.1666L21.9446 19.9999L28.1112 13.8333L26.1667 11.8887L20 18.0553L13.8333 11.8887L11.8887 13.8333L18.0554 19.9999L11.8887 26.1666L13.8333 28.1112ZM20 36.6666C17.7131 36.6666 15.5557 36.2291 13.5279 35.3541C11.5001 34.4791 9.73152 33.287 8.22208 31.7778C6.71291 30.2684 5.52083 28.4998 4.64583 26.472C3.77083 24.4442 3.33333 22.2869 3.33333 19.9999C3.33333 17.6944 3.77083 15.5277 4.64583 13.4999C5.52083 11.4721 6.71291 9.70825 8.22208 8.20825C9.73152 6.70825 11.5001 5.52075 13.5279 4.64575C15.5557 3.77075 17.7131 3.33325 20 3.33325C22.3056 3.33325 24.4722 3.77075 26.5 4.64575C28.5278 5.52075 30.2917 6.70825 31.7917 8.20825C33.2917 9.70825 34.4792 11.4721 35.3542 13.4999C36.2292 15.5277 36.6667 17.6944 36.6667 19.9999C36.6667 22.2869 36.2292 24.4442 35.3542 26.472C34.4792 28.4998 33.2917 30.2684 31.7917 31.7778C30.2917 33.287 28.5278 34.4791 26.5 35.3541C24.4722 36.2291 22.3056 36.6666 20 36.6666ZM20 33.8887C23.8703 33.8887 27.1526 32.5369 29.8471 29.8333C32.5415 27.1296 33.8887 23.8519 33.8887 19.9999C33.8887 16.1296 32.5415 12.8473 29.8471 10.1528C27.1526 7.45839 23.8703 6.11117 20 6.11117C16.1481 6.11117 12.8703 7.45839 10.1667 10.1528C7.46305 12.8473 6.11125 16.1296 6.11125 19.9999C6.11125 23.8519 7.46305 27.1296 10.1667 29.8333C12.8703 32.5369 16.1481 33.8887 20 33.8887Z" fill="white"/>
</svg>
